<?xml version="1.0" encoding="UTF-8"?>
<svg width="500" height="405" version="1.1" viewBox="0 0 500 405" xmlns="http://www.w3.org/2000/svg">
 <path d="m47.212 0.30742v95.63h405.56v-95.63zm20.302 116.13v22.298h432.49v-22.298zm382.68 40.79c-7.7009 0-14.564 0.98012-20.596 2.9555-6.0958 1.9965-11.338 4.9868-15.722 8.9905-4.3948 4.0036-7.6906 8.7922-9.8884 14.391-2.1867 5.5564-3.28 11.888-3.28 18.987 0 5.06 0.5467 9.7005 1.6558 13.958 1.1092 4.2783 2.769 8.147 4.9977 11.559 2.197 3.4121 4.7497 6.3476 7.6447 8.8512 2.8942 2.5036 6.1314 4.5741 9.7022 6.1587 3.5494 1.5739 7.5496 2.7462 12.008 3.5282 4.4264 0.77168 9.2942 1.1605 14.607 1.1605 5.229 0 10.058-0.46349 14.484-1.3617 4.4471-0.9085 8.4528-2.2626 12.023-4.1006 3.5811-1.8275 6.755-4.0356 9.5018-6.592 2.746-2.567 5.0769-5.478 6.9783-8.7739 1.8912-3.2958 3.3205-7.0608 4.2712-11.265 0.9293-4.1726 1.4079-8.7641 1.4079-13.803 0-7.0037-1.0839-13.241-3.2492-18.724-2.1763-5.5142-5.4326-10.254-9.7957-14.205-4.3519-3.9297-9.6142-6.8659-15.783-8.8202-6.106-1.9332-13.098-2.8936-20.968-2.8936zm-450.17 1.4081v24.078h29.262v63.63h31.8v-63.63h29.261v-24.078h-88.744zm103.44 0v87.707h81.27v-22.314h-49.332v-13.447h44.427v-20.426h-44.427v-10.275h47.924v-21.246h-78.268zm97.116 0v51.947c0 2.155 0.2298 4.4703 0.6814 6.9634 0.4674 2.4719 1.1448 5.0785 2.0425 7.8144 0.5942 1.7747 1.4237 3.5336 2.5226 5.2766 1.0664 1.7113 2.3926 3.3966 3.9455 5.0446 1.5425 1.6374 3.1738 3.096 4.8741 4.3637 1.7224 1.2782 3.5406 2.3671 5.4318 3.265 1.9015 0.90842 4.0105 1.6519 6.3136 2.2437 2.3032 0.59183 4.8202 1.0353 7.5663 1.3308 2.6834 0.28521 5.286 0.5126 7.7682 0.64966 2.5353 0.16083 4.9303 0.23214 7.1804 0.23214 3.94 0 7.6304-0.25195 11.064-0.72731 3.433-0.48567 6.6013-1.21 9.4851-2.1818 2.1027-0.71859 4.1674-1.6731 6.1742-2.9091 1.9966-1.2149 3.9582-2.7037 5.8494-4.4256 1.9118-1.743 3.5668-3.6247 4.9826-5.6635 1.4047-2.0599 2.5638-4.2574 3.4504-6.592 0.8881-2.3029 1.5687-4.6877 2.0124-7.1491 0.4436-2.4719 0.6813-4.9794 0.6813-7.5359v-51.947h-31.815v53.138c0 2.155-0.301 4.0318-0.9277 5.648-0.6101 1.5846-1.5196 2.9142-2.7239 4.0233-1.2462 1.1303-2.7294 1.9828-4.4415 2.5532-1.7533 0.58074-3.7728 0.86659-6.0656 0.86659-2.3135 0-4.3631-0.30107-6.1275-0.88204-1.7327-0.58074-3.2206-1.4433-4.4565-2.5842-1.2146-1.1197-2.1114-2.4803-2.7239-4.0542-0.6259-1.5952-0.9436-3.458-0.9436-5.5707v-53.138zm104.73 0v24.078h29.277v63.63h31.799v-63.63h29.262v-24.078h-88.744zm144.82 21.478c2.8419 0 5.3439 0.42386 7.552 1.2688 2.1652 0.8345 4.058 2.0758 5.6631 3.7448 1.5846 1.6586 2.792 3.8062 3.6057 6.4682 0.8239 2.736 1.2225 6.0224 1.2225 9.857 0 4.6163-0.3883 8.4787-1.1916 11.606-0.7844 3.0106-1.9245 5.3414-3.4353 6.9788-1.5109 1.6268-3.3696 2.8589-5.5246 3.6829-2.2072 0.83419-4.7441 1.2688-7.628 1.2688-2.7999 0-5.3035-0.42862-7.4902-1.2844-2.1549-0.84504-4.012-2.1115-5.5855-3.7911-1.5742-1.6691-2.7674-3.9417-3.5597-6.7622-0.8342-2.9156-1.2375-6.4286-1.2375-10.538 0-4.1621 0.404-7.725 1.2375-10.662 0.8137-2.8417 2.0164-5.0882 3.5906-6.7467 1.5846-1.6902 3.4377-2.951 5.5396-3.8066 2.1336-0.8448 4.5484-1.2844 7.2414-1.2844zm-450.13 86.129v22.298h432.47v-22.298zm47.212 42.801v95.646h405.56v-95.646z" fill="#00a7e0" fill-rule="evenodd"/>
</svg>
